<svg width="73" height="60" viewBox="0 0 73 60" fill="none" xmlns="http://www.w3.org/2000/svg">
<path d="M5.29901 23.6364V7.27273H6.3473V23.6364H5.29901ZM8.57812 12.348C8.50994 11.7429 8.22869 11.2741 7.73438 10.9418C7.24006 10.6051 6.6179 10.4368 5.8679 10.4368C5.33097 10.4368 4.86648 10.522 4.47443 10.6925C4.08239 10.8587 3.7777 11.0888 3.56037 11.3828C3.3473 11.6726 3.24077 12.0028 3.24077 12.3736C3.24077 12.6847 3.31321 12.9531 3.4581 13.179C3.60724 13.4048 3.80114 13.5945 4.03977 13.7479C4.28267 13.897 4.54261 14.0227 4.8196 14.125C5.09659 14.223 5.36293 14.304 5.61861 14.3679L6.89702 14.7003C7.31463 14.8026 7.7429 14.9411 8.18182 15.1158C8.62074 15.2905 9.0277 15.5206 9.4027 15.8061C9.7777 16.0916 10.0803 16.4453 10.3104 16.8672C10.5447 17.2891 10.6619 17.794 10.6619 18.3821C10.6619 19.1236 10.4702 19.782 10.0866 20.3572C9.70739 20.9325 9.15554 21.3864 8.43111 21.7188C7.71094 22.0511 6.83949 22.2173 5.81676 22.2173C4.83665 22.2173 3.98864 22.0618 3.27273 21.7507C2.55682 21.4396 1.99645 20.9986 1.59162 20.4276C1.18679 19.8523 0.963068 19.1705 0.920455 18.3821H2.90199C2.94034 18.8551 3.09375 19.2493 3.36222 19.5646C3.63494 19.8757 3.98224 20.108 4.40412 20.2614C4.83026 20.4105 5.29688 20.4851 5.80398 20.4851C6.36222 20.4851 6.85867 20.3977 7.29332 20.223C7.73224 20.044 8.07742 19.7969 8.32884 19.4815C8.58026 19.1619 8.70597 18.7891 8.70597 18.3629C8.70597 17.9751 8.59517 17.6577 8.37358 17.4105C8.15625 17.1634 7.86009 16.9588 7.48509 16.7969C7.11435 16.6349 6.6946 16.4922 6.22585 16.3686L4.67898 15.9467C3.63068 15.6612 2.79972 15.2415 2.18608 14.6875C1.5767 14.1335 1.27202 13.4006 1.27202 12.4886C1.27202 11.7344 1.47656 11.076 1.88565 10.5135C2.29474 9.95099 2.84872 9.5142 3.54759 9.20312C4.24645 8.88778 5.0348 8.73011 5.91264 8.73011C6.79901 8.73011 7.58097 8.88565 8.25852 9.19673C8.94034 9.50781 9.47727 9.93608 9.86932 10.4815C10.2614 11.0227 10.4659 11.6449 10.483 12.348H8.57812Z" fill="#A6A6A6"/>
<path d="M34.022 22.6364V59H27.4347V29.0462H27.2216L18.7166 34.4794V28.4425L27.7543 22.6364H34.022ZM56.5717 59.4972C54.8317 59.4853 53.133 59.1835 51.4759 58.5916C49.8187 57.9879 48.3272 57.0114 47.0014 55.6619C45.6757 54.3007 44.6222 52.4955 43.8409 50.2464C43.0597 47.9856 42.675 45.1861 42.6868 41.848C42.6868 38.7348 43.0182 35.959 43.6811 33.5206C44.344 31.0821 45.2969 29.0225 46.5398 27.3416C47.7827 25.6489 49.2801 24.3587 51.032 23.4709C52.7957 22.5831 54.7666 22.1392 56.9446 22.1392C59.2292 22.1392 61.2533 22.589 63.017 23.4886C64.7926 24.3883 66.2249 25.6193 67.3139 27.1818C68.4029 28.7325 69.0777 30.4844 69.3381 32.4375H62.8572C62.5258 31.0407 61.8452 29.928 60.8153 29.0994C59.7973 28.259 58.5071 27.8388 56.9446 27.8388C54.4233 27.8388 52.482 28.9337 51.1207 31.1236C49.7713 33.3134 49.0907 36.3201 49.0788 40.1435H49.3274C49.9074 39.1018 50.6591 38.2081 51.5824 37.4624C52.5057 36.7166 53.5473 36.1425 54.7074 35.7401C55.8793 35.3258 57.1162 35.1186 58.4183 35.1186C60.549 35.1186 62.4607 35.6276 64.1534 36.6456C65.858 37.6636 67.2074 39.0663 68.2017 40.8537C69.196 42.6293 69.6873 44.6652 69.6754 46.9616C69.6873 49.3527 69.1428 51.5012 68.0419 53.407C66.9411 55.3009 65.4081 56.7924 63.4432 57.8814C61.4782 58.9704 59.1877 59.509 56.5717 59.4972ZM56.5362 54.1705C57.8265 54.1705 58.9806 53.8568 59.9986 53.2294C61.0166 52.602 61.8215 51.7557 62.4134 50.6903C63.0052 49.625 63.2952 48.4295 63.2834 47.1037C63.2952 45.8016 63.0111 44.6238 62.4311 43.5703C61.8629 42.5168 61.0758 41.6823 60.0696 41.0668C59.0634 40.4512 57.9152 40.1435 56.625 40.1435C55.6662 40.1435 54.7725 40.3269 53.9439 40.6939C53.1153 41.0608 52.3932 41.5698 51.7777 42.2209C51.1622 42.8601 50.6768 43.6058 50.3217 44.4581C49.9785 45.2985 49.8009 46.1982 49.7891 47.157C49.8009 48.4235 50.0968 49.5895 50.6768 50.6548C51.2569 51.7202 52.0559 52.5724 53.0739 53.2116C54.0919 53.8509 55.246 54.1705 56.5362 54.1705Z" fill="#191A15"/>
</svg>
