<svg width="50" height="60" viewBox="0 0 50 60" fill="none" xmlns="http://www.w3.org/2000/svg">
<path d="M5.29901 23.6364V7.27273H6.3473V23.6364H5.29901ZM8.57812 12.348C8.50994 11.7429 8.22869 11.2741 7.73438 10.9418C7.24006 10.6051 6.6179 10.4368 5.8679 10.4368C5.33097 10.4368 4.86648 10.522 4.47443 10.6925C4.08239 10.8587 3.7777 11.0888 3.56037 11.3828C3.3473 11.6726 3.24077 12.0028 3.24077 12.3736C3.24077 12.6847 3.31321 12.9531 3.4581 13.179C3.60724 13.4048 3.80114 13.5945 4.03977 13.7479C4.28267 13.897 4.54261 14.0227 4.8196 14.125C5.09659 14.223 5.36293 14.304 5.61861 14.3679L6.89702 14.7003C7.31463 14.8026 7.7429 14.9411 8.18182 15.1158C8.62074 15.2905 9.0277 15.5206 9.4027 15.8061C9.7777 16.0916 10.0803 16.4453 10.3104 16.8672C10.5447 17.2891 10.6619 17.794 10.6619 18.3821C10.6619 19.1236 10.4702 19.782 10.0866 20.3572C9.70739 20.9325 9.15554 21.3864 8.43111 21.7188C7.71094 22.0511 6.83949 22.2173 5.81676 22.2173C4.83665 22.2173 3.98864 22.0618 3.27273 21.7507C2.55682 21.4396 1.99645 20.9986 1.59162 20.4276C1.18679 19.8523 0.963068 19.1705 0.920455 18.3821H2.90199C2.94034 18.8551 3.09375 19.2493 3.36222 19.5646C3.63494 19.8757 3.98224 20.108 4.40412 20.2614C4.83026 20.4105 5.29688 20.4851 5.80398 20.4851C6.36222 20.4851 6.85867 20.3977 7.29332 20.223C7.73224 20.044 8.07742 19.7969 8.32884 19.4815C8.58026 19.1619 8.70597 18.7891 8.70597 18.3629C8.70597 17.9751 8.59517 17.6577 8.37358 17.4105C8.15625 17.1634 7.86009 16.9588 7.48509 16.7969C7.11435 16.6349 6.6946 16.4922 6.22585 16.3686L4.67898 15.9467C3.63068 15.6612 2.79972 15.2415 2.18608 14.6875C1.5767 14.1335 1.27202 13.4006 1.27202 12.4886C1.27202 11.7344 1.47656 11.076 1.88565 10.5135C2.29474 9.95099 2.84872 9.5142 3.54759 9.20312C4.24645 8.88778 5.0348 8.73011 5.91264 8.73011C6.79901 8.73011 7.58097 8.88565 8.25852 9.19673C8.94034 9.50781 9.47727 9.93608 9.86932 10.4815C10.2614 11.0227 10.4659 11.6449 10.483 12.348H8.57812Z" fill="#A6A6A6"/>
<path d="M32.6726 59.6925C29.7488 59.6925 27.2393 58.9527 25.1442 57.473C23.0608 55.9815 21.4569 53.8331 20.3324 51.0277C19.2197 48.2105 18.6634 44.8191 18.6634 40.8537C18.6752 36.8883 19.2375 33.5147 20.3501 30.733C21.4747 27.9394 23.0786 25.8087 25.1619 24.3409C27.2571 22.8731 29.7607 22.1392 32.6726 22.1392C35.5845 22.1392 38.0881 22.8731 40.1832 24.3409C42.2784 25.8087 43.8823 27.9394 44.995 30.733C46.1196 33.5265 46.6818 36.9001 46.6818 40.8537C46.6818 44.831 46.1196 48.2282 44.995 51.0455C43.8823 53.8509 42.2784 55.9934 40.1832 57.473C38.0999 58.9527 35.5964 59.6925 32.6726 59.6925ZM32.6726 54.1349C34.9453 54.1349 36.7386 53.0163 38.0526 50.7791C39.3783 48.5301 40.0412 45.2216 40.0412 40.8537C40.0412 37.9654 39.7393 35.5388 39.1357 33.5739C38.532 31.6089 37.6797 30.1293 36.5788 29.1349C35.478 28.1288 34.1759 27.6257 32.6726 27.6257C30.4117 27.6257 28.6243 28.7502 27.3104 30.9993C25.9964 33.2365 25.3336 36.5213 25.3217 40.8537C25.3099 43.7538 25.5999 46.1922 26.1918 48.169C26.7955 50.1458 27.6477 51.6373 28.7486 52.6435C29.8494 53.6378 31.1574 54.1349 32.6726 54.1349Z" fill="#191A15"/>
</svg>
