<svg width="49" height="60" viewBox="0 0 49 60" fill="none" xmlns="http://www.w3.org/2000/svg">
<path d="M5.29901 23.6364V7.27273H6.3473V23.6364H5.29901ZM8.57812 12.348C8.50994 11.7429 8.22869 11.2741 7.73438 10.9418C7.24006 10.6051 6.6179 10.4368 5.8679 10.4368C5.33097 10.4368 4.86648 10.522 4.47443 10.6925C4.08239 10.8587 3.7777 11.0888 3.56037 11.3828C3.3473 11.6726 3.24077 12.0028 3.24077 12.3736C3.24077 12.6847 3.31321 12.9531 3.4581 13.179C3.60724 13.4048 3.80114 13.5945 4.03977 13.7479C4.28267 13.897 4.54261 14.0227 4.8196 14.125C5.09659 14.223 5.36293 14.304 5.61861 14.3679L6.89702 14.7003C7.31463 14.8026 7.7429 14.9411 8.18182 15.1158C8.62074 15.2905 9.0277 15.5206 9.4027 15.8061C9.7777 16.0916 10.0803 16.4453 10.3104 16.8672C10.5447 17.2891 10.6619 17.794 10.6619 18.3821C10.6619 19.1236 10.4702 19.782 10.0866 20.3572C9.70739 20.9325 9.15554 21.3864 8.43111 21.7188C7.71094 22.0511 6.83949 22.2173 5.81676 22.2173C4.83665 22.2173 3.98864 22.0618 3.27273 21.7507C2.55682 21.4396 1.99645 20.9986 1.59162 20.4276C1.18679 19.8523 0.963068 19.1705 0.920455 18.3821H2.90199C2.94034 18.8551 3.09375 19.2493 3.36222 19.5646C3.63494 19.8757 3.98224 20.108 4.40412 20.2614C4.83026 20.4105 5.29688 20.4851 5.80398 20.4851C6.36222 20.4851 6.85867 20.3977 7.29332 20.223C7.73224 20.044 8.07742 19.7969 8.32884 19.4815C8.58026 19.1619 8.70597 18.7891 8.70597 18.3629C8.70597 17.9751 8.59517 17.6577 8.37358 17.4105C8.15625 17.1634 7.86009 16.9588 7.48509 16.7969C7.11435 16.6349 6.6946 16.4922 6.22585 16.3686L4.67898 15.9467C3.63068 15.6612 2.79972 15.2415 2.18608 14.6875C1.5767 14.1335 1.27202 13.4006 1.27202 12.4886C1.27202 11.7344 1.47656 11.076 1.88565 10.5135C2.29474 9.95099 2.84872 9.5142 3.54759 9.20312C4.24645 8.88778 5.0348 8.73011 5.91264 8.73011C6.79901 8.73011 7.58097 8.88565 8.25852 9.19673C8.94034 9.50781 9.47727 9.93608 9.86932 10.4815C10.2614 11.0227 10.4659 11.6449 10.483 12.348H8.57812Z" fill="white"/>
<path d="M32.1577 59.4972C29.518 59.4972 27.1742 59.0533 25.1264 58.1655C23.0904 57.2777 21.4924 56.0644 20.3324 54.5256C19.1842 52.9749 18.616 51.2171 18.6278 49.2521C18.616 47.7251 18.9474 46.3224 19.6222 45.044C20.2969 43.7656 21.2083 42.7003 22.3565 41.848C23.5166 40.9839 24.8068 40.4335 26.2273 40.1967V39.9482C24.357 39.5339 22.8419 38.581 21.6818 37.0895C20.5336 35.5862 19.9654 33.852 19.9773 31.8871C19.9654 30.0168 20.4863 28.3478 21.5398 26.88C22.5933 25.4122 24.0374 24.258 25.8722 23.4176C27.7069 22.5653 29.8021 22.1392 32.1577 22.1392C34.4896 22.1392 36.567 22.5653 38.3899 23.4176C40.2247 24.258 41.6688 25.4122 42.7223 26.88C43.7876 28.3478 44.3203 30.0168 44.3203 31.8871C44.3203 33.852 43.7344 35.5862 42.5625 37.0895C41.4025 38.581 39.9051 39.5339 38.0703 39.9482V40.1967C39.4908 40.4335 40.7692 40.9839 41.9055 41.848C43.0537 42.7003 43.9652 43.7656 44.6399 45.044C45.3265 46.3224 45.6697 47.7251 45.6697 49.2521C45.6697 51.2171 45.0897 52.9749 43.9297 54.5256C42.7696 56.0644 41.1716 57.2777 39.1357 58.1655C37.1115 59.0533 34.7855 59.4972 32.1577 59.4972ZM32.1577 54.419C33.5189 54.419 34.7027 54.1882 35.7088 53.7266C36.715 53.2531 37.4962 52.5902 38.0526 51.7379C38.6089 50.8857 38.893 49.9032 38.9048 48.7905C38.893 47.6304 38.5911 46.6065 37.9993 45.7188C37.4193 44.8191 36.6203 44.1148 35.6023 43.6058C34.5961 43.0968 33.4479 42.8423 32.1577 42.8423C30.8556 42.8423 29.6955 43.0968 28.6776 43.6058C27.6596 44.1148 26.8546 44.8191 26.2628 45.7188C25.6828 46.6065 25.3987 47.6304 25.4105 48.7905C25.3987 49.9032 25.6709 50.8857 26.2273 51.7379C26.7836 52.5784 27.5649 53.2353 28.571 53.7088C29.589 54.1823 30.7846 54.419 32.1577 54.419ZM32.1577 37.853C33.2704 37.853 34.2528 37.6281 35.1051 37.1783C35.9692 36.7285 36.6499 36.1011 37.147 35.2962C37.6442 34.4912 37.8987 33.562 37.9105 32.5085C37.8987 31.4669 37.6501 30.5554 37.1648 29.7741C36.6795 28.9811 36.0047 28.3714 35.1406 27.9453C34.2765 27.5073 33.2822 27.2884 32.1577 27.2884C31.0095 27.2884 29.9974 27.5073 29.1214 27.9453C28.2573 28.3714 27.5826 28.9811 27.0973 29.7741C26.6238 30.5554 26.393 31.4669 26.4048 32.5085C26.393 33.562 26.6297 34.4912 27.1151 35.2962C27.6122 36.0893 28.2929 36.7166 29.157 37.1783C30.0329 37.6281 31.0331 37.853 32.1577 37.853Z" fill="white"/>
</svg>
